<svg width="24" height="24" viewBox="0 0 24 24" fill="none" xmlns="http://www.w3.org/2000/svg">
<path d="M12.7808 2.37505C12.3998 1.90005 11.5998 1.90005 11.2188 2.37505L3.21879 12.375C3.10143 12.5223 3.02796 12.6996 3.00682 12.8867C2.98568 13.0737 3.01773 13.263 3.09928 13.4327C3.18083 13.6024 3.30859 13.7456 3.46787 13.846C3.62716 13.9463 3.81152 13.9997 3.99979 14H7.99979V21C7.99979 21.2653 8.10514 21.5196 8.29268 21.7072C8.48022 21.8947 8.73457 22 8.99979 22H14.9998C15.265 22 15.5194 21.8947 15.7069 21.7072C15.8944 21.5196 15.9998 21.2653 15.9998 21V14H19.9998C20.1881 13.9997 20.3724 13.9463 20.5317 13.846C20.691 13.7456 20.8187 13.6024 20.9003 13.4327C20.9818 13.263 21.0139 13.0737 20.9928 12.8867C20.9716 12.6996 20.8981 12.5223 20.7808 12.375L12.7808 2.37505Z" fill="black"/>
</svg>
